<?xml version="1.0" encoding="UTF-8"?>
<svg xmlns="http://www.w3.org/2000/svg" xmlns:xlink="http://www.w3.org/1999/xlink" viewBox="0 0 50 50" width="50px" height="50px">
<g id="surface174776847">
<path style=" stroke:none;fill-rule:nonzero;fill:rgb(70.19608%,82.352942%,84.705883%);fill-opacity:1;" d="M 43 9 L 45 9 L 45 41 L 43 41 Z M 31 16 L 33 16 L 33 27 L 31 27 Z M 17 16 L 19 16 L 19 27 L 17 27 Z M 9 43 L 41 43 L 41 45 L 9 45 Z M 9 5 L 41 5 L 41 7 L 9 7 Z M 5 9 L 7 9 L 7 41 L 5 41 Z M 41 9 L 43 9 L 43 7 L 41 7 Z M 7 9 L 9 9 L 9 7 L 7 7 Z M 41 35 L 41 37 L 9 37 L 9 35 L 7 35 L 7 43 L 43 43 L 43 35 Z M 41 35 "/>
</g>
</svg>
