<?xml version="1.0" encoding="UTF-8"?>
<svg xmlns="http://www.w3.org/2000/svg" xmlns:xlink="http://www.w3.org/1999/xlink" viewBox="0 0 30 30" width="30px" height="30px">
<g id="surface174831261">
<path style=" stroke:none;fill-rule:nonzero;fill:rgb(70.19608%,82.352942%,84.705883%);fill-opacity:1;" d="M 6 4 C 4.894531 4 4 4.894531 4 6 L 4 24 C 4 25.105469 4.894531 26 6 26 L 24 26 C 25.105469 26 26 25.105469 26 24 L 26 6 C 26 4.894531 25.105469 4 24 4 Z M 19.660156 9.246094 C 20.28125 9.246094 20.707031 9.644531 20.707031 10.183594 C 20.707031 10.726562 20.28125 11.121094 19.660156 11.121094 C 19.046875 11.121094 18.617188 10.726562 18.617188 10.183594 C 18.617188 9.644531 19.046875 9.246094 19.660156 9.246094 Z M 11.792969 9.953125 L 13.773438 9.953125 L 17.28125 19.816406 L 15.386719 19.816406 L 14.554688 17.296875 L 10.925781 17.296875 L 10.074219 19.816406 L 8.292969 19.816406 Z M 12.6875 11.832031 L 11.335938 15.898438 L 14.144531 15.898438 L 12.804688 11.832031 Z M 18.820312 12.339844 L 20.507812 12.339844 L 20.507812 19.816406 L 18.820312 19.816406 Z M 18.820312 12.339844 "/>
</g>
</svg>
