<?xml version="1.0" encoding="UTF-8"?>
<svg xmlns="http://www.w3.org/2000/svg" xmlns:xlink="http://www.w3.org/1999/xlink" viewBox="0 0 30 30" width="30px" height="30px">
<g id="surface174836988">
<path style=" stroke:none;fill-rule:nonzero;fill:rgb(70.19608%,82.352942%,84.705883%);fill-opacity:1;" d="M 6 4 C 4.894531 4 4 4.894531 4 6 L 4 24 C 4 25.105469 4.894531 26 6 26 L 24 26 C 25.105469 26 26 25.105469 26 24 L 26 6 C 26 4.894531 25.105469 4 24 4 Z M 8 9.992188 L 11.976562 9.992188 C 13.949219 9.992188 15.296875 11.339844 15.296875 13.328125 C 15.296875 15.28125 13.898438 16.621094 11.902344 16.621094 L 9.765625 16.621094 L 9.765625 19.859375 L 8 19.859375 Z M 9.761719 11.46875 L 9.761719 15.160156 L 11.507812 15.160156 C 12.765625 15.160156 13.503906 14.503906 13.503906 13.328125 C 13.503906 12.117188 12.785156 11.46875 11.511719 11.46875 Z M 19.207031 12.226562 C 20.984375 12.226562 22.101562 13.011719 22.222656 14.371094 L 20.628906 14.371094 C 20.507812 13.847656 20.007812 13.511719 19.214844 13.511719 C 18.441406 13.511719 17.859375 13.882812 17.859375 14.421875 C 17.859375 14.847656 18.214844 15.105469 18.96875 15.277344 L 20.285156 15.578125 C 21.714844 15.898438 22.378906 16.511719 22.378906 17.613281 C 22.378906 19.050781 21.058594 20.007812 19.191406 20.007812 C 17.328125 20.007812 16.152344 19.199219 16.019531 17.839844 L 17.695312 17.839844 C 17.859375 18.394531 18.386719 18.722656 19.234375 18.722656 C 20.089844 18.722656 20.683594 18.347656 20.683594 17.792969 C 20.683594 17.367188 20.363281 17.101562 19.652344 16.941406 L 18.324219 16.636719 C 16.890625 16.308594 16.214844 15.644531 16.214844 14.515625 C 16.214844 13.164062 17.441406 12.226562 19.207031 12.226562 Z M 19.207031 12.226562 "/>
</g>
</svg>
