<?xml version="1.0" encoding="UTF-8"?>
<svg id="Layer_2" data-name="Layer 2" xmlns="http://www.w3.org/2000/svg" viewBox="0 0 38.68 36.98">
  <defs>
    <style>
      .cls-1 {
        fill: #b3d2d8;
      }
    </style>
  </defs>
  <g id="Layer_1-2" data-name="Layer 1">
    <g>
      <path class="cls-1" d="M32.91,18.95c.41,1.03,1.12,2.06,1.16,3.1,.14,3.77,.04,7.55,.05,11.32,0,2.47-1.17,3.62-3.67,3.61-7.45-.04-14.9-.02-22.36-.01-1.94,0-3.39-.71-3.44-2.81-.11-4.29-.13-8.6,.01-12.89,.03-.9,.92-1.77,1.42-2.66,3.78-3.48,5.92-6.82,9.71-10.3,1.46-1.34,4.48-1.53,5.83-.27,3.76,3.52,7.51,7.39,11.28,10.89Zm-12.89,8.05c4.53-.56,4.95-1.2,4.36-5.97H14.05c.45,2.12-1.08,5.27,2.65,5.65,2.55,.26,2.23,1.41,1.86,3.24-1.39,0-2.66-.14-3.88,.05-.78,.13-1.48,.75-2.22,1.15,.7,.42,1.39,1.18,2.11,1.21,3.04,.14,6.09,.14,9.13,0,.86-.04,1.69-.73,2.53-1.12-.81-.43-1.58-1.09-2.43-1.25-1.19-.22-2.46-.05-3.78-.05v-2.92Zm-4.84-7.21h8.32c-.68-2.63-.95-5.08-2.04-7.08-.35-.64-3.85-.65-4.2-.01-1.1,2-1.38,4.44-2.07,7.09Z"/>
      <path class="cls-1" d="M32.91,18.95c-3.77-3.5-7.36-5.89-11.11-9.41-1.35-1.26-2.91-2.7-4.37-1.36-3.78,3.47-7.55,6.96-11.33,10.44-1.81,.59-3.69,3.11-5.49,.46-1.83-2.69,.96-3.9,2.44-5.3C7.33,9.74,11.73,5.82,16.09,1.87c2.72-2.47,3.79-2.49,6.44-.08,4.44,4.03,8.9,8.04,13.28,12.13,1.45,1.35,3.93,2.53,2.35,5.1-1.59,2.59-3.5,.32-5.26-.07Z"/>
      <path class="cls-1" d="M23.7,23.43c-.35,3.6-3.19,2.33-5.16,2.5-1.82,.16-3.63,0-3.47-2.45,1.48,.49,2.9,1.33,4.32,1.34,1.36,0,2.73-.84,4.31-1.4Z"/>
    </g>
  </g>
</svg>